<?xml version="1.0" encoding="iso-8859-1"?>
<!-- Generator: Adobe Illustrator 19.0.0, SVG Export Plug-In . SVG Version: 6.00 Build 0)  -->
<svg version="1.1" id="Capa_1" xmlns="http://www.w3.org/2000/svg" xmlns:xlink="http://www.w3.org/1999/xlink" x="0px" y="0px"
	 viewBox="0 0 496 496" style="enable-background:new 0 0 496 496;" xml:space="preserve">
<g>
	<g>
		<path d="M400,401.472V288c0-22.056-17.944-40-40-40h-80c-1.24,0-2.472,0.288-3.576,0.84l-27.24,13.616l-38.448-13.976
			c-0.88-0.312-1.808-0.48-2.736-0.48h-88c-22.056,0-40,17.944-40,40v152c0,19.312,13.768,35.472,32,39.192V496h16v-16h160v16h16
			v-16h40h8v16h16v-16h24c13.232,0,24-10.768,24-24v-32C416,413.584,409.288,404.784,400,401.472z M336,464H120
			c-13.232,0-24-10.768-24-24V288c0-13.232,10.768-24,24-24h86.592L288,293.6V400H160v-72h-16v80c0,4.424,3.576,8,8,8h184V464z
			 M344,400h-8v-72h-16v72h-16V288c0-3.368-2.104-6.368-5.264-7.512L269.896,270l11.992-6H360c13.232,0,24,10.768,24,24v112H344z
			 M400,456c0,4.416-3.584,8-8,8h-40v-48h40c4.416,0,8,3.584,8,8V456z"/>
	</g>
</g>
<g>
	<g>
		<path d="M280,8c-5.328,0-10.56,1.384-15.208,3.928C258.816,4.544,249.744,0,240,0s-18.816,4.544-24.792,11.928
			C210.56,9.384,205.328,8,200,8c-17.648,0-32,14.352-32,32c0,11.456,6.24,21.928,16,27.584V128v48c0,30.872,25.128,56,56,56
			s56-25.128,56-56v-48V67.584c9.76-5.656,16-16.136,16-27.584C312,22.352,297.648,8,280,8z M280,176c0,22.056-17.944,40-40,40
			c-10.304,0-19.616-4.024-26.712-10.44C228.8,200.048,240,185.376,240,168h-16c0,12.136-9.08,22.088-20.784,23.672
			C201.152,186.856,200,181.56,200,176v-40h80V176z M285.304,54.984c-3.176,1.144-5.304,4.152-5.304,7.528V120h-80V62.512
			c0-3.384-2.128-6.392-5.304-7.528C188.296,52.696,184,46.672,184,40c0-8.816,7.176-16,16-16c4.424,0,8.568,1.848,11.688,5.216
			c1.88,2.04,4.728,2.984,7.432,2.408c2.728-0.536,4.976-2.464,5.944-5.072C227.392,20.24,233.392,16,240,16
			c6.608,0,12.608,4.24,14.936,10.552c0.968,2.608,3.216,4.528,5.944,5.072c2.744,0.56,5.544-0.376,7.432-2.408
			C271.432,25.848,275.576,24,280,24c8.816,0,16,7.184,16,16C296,46.672,291.704,52.696,285.304,54.984z"/>
	</g>
</g>
<g>
	<g>
		<circle cx="264" cy="312" r="8"/>
	</g>
</g>
<g>
	<g>
		<circle cx="264" cy="344" r="8"/>
	</g>
</g>
<g>
	<g>
		<circle cx="264" cy="376" r="8"/>
	</g>
</g>
<g>
</g>
<g>
</g>
<g>
</g>
<g>
</g>
<g>
</g>
<g>
</g>
<g>
</g>
<g>
</g>
<g>
</g>
<g>
</g>
<g>
</g>
<g>
</g>
<g>
</g>
<g>
</g>
<g>
</g>
</svg>
