<?xml version="1.0" encoding="iso-8859-1"?>
<!-- Generator: Adobe Illustrator 19.0.0, SVG Export Plug-In . SVG Version: 6.00 Build 0)  -->
<svg version="1.1" id="Capa_1" xmlns="http://www.w3.org/2000/svg" xmlns:xlink="http://www.w3.org/1999/xlink" x="0px" y="0px"
	 viewBox="0 0 495.992 495.992" style="enable-background:new 0 0 495.992 495.992;" xml:space="preserve">
<g>
	<g>
		<path d="M80,343.996c-22.056,0-40,17.944-40,40c0,22.056,17.944,40,40,40c22.056,0,40-17.944,40-40
			C120,361.94,102.056,343.996,80,343.996z M80,407.996c-13.232,0-24-10.768-24-24s10.768-24,24-24s24,10.768,24,24
			S93.232,407.996,80,407.996z"/>
	</g>
</g>
<g>
	<g>
		<path d="M384,343.996c-22.056,0-40,17.944-40,40c0,22.056,17.944,40,40,40c22.056,0,40-17.944,40-40
			C424,361.94,406.056,343.996,384,343.996z M384,407.996c-13.232,0-24-10.768-24-24s10.768-24,24-24s24,10.768,24,24
			S397.232,407.996,384,407.996z"/>
	</g>
</g>
<g>
	<g>
		<path d="M488,103.996H328c-4.416,0-8,3.584-8,8v32v124.688l-11.312,11.312H287.12c10.4-10.176,16.88-24.336,16.88-40v-56
			c0-24.92-16.368-46.072-38.912-53.312c7.328-7,12.432-16.272,14.192-26.688H280c4.416,0,8-3.584,8-8c0-30.88-25.12-56-56-56
			s-56,25.12-56,56c0,4.416,3.584,8,8,8h0.72c2.552,15.112,12.152,27.832,25.328,34.64l-7.704,7.704
			c-1.504,1.496-2.344,3.536-2.344,5.656v32h-40.808c-3.72-18.232-19.872-32-39.192-32h-8v-32H96v32h-8c-4.416,0-8,3.584-8,8v4.448
			c-4.728-2.752-10.144-4.448-16-4.448H48c-4.416,0-8,3.584-8,8v48c0,4.416,3.584,8,8,8h16c5.856,0,11.272-1.696,16-4.448v52.448H48
			c-26.472,0-48,21.528-48,48c0,4.416,3.584,8,8,8h26.848C18.496,341.204,8,361.388,8,383.996c0,39.696,32.304,72,72,72
			c34.192,0,62.84-23.984,70.144-56h163.04c7.304,32.016,35.952,56,70.144,56c28.2,0,52.592-16.336,64.4-40h40.264
			c4.416,0,8-3.584,8-8v-32c0-4.416-3.584-8-8-8h-34.52c-3.656-16.008-12.624-30.008-24.992-40h3.512
			c5.92,0,11.392-1.72,16.152-4.536l26.192,26.192l11.312-11.312l-26.192-26.192c2.808-4.76,4.536-10.24,4.536-16.152
			c0-5.992-1.76-11.544-4.64-16.336c20.464-1.744,36.64-18.76,36.64-39.664v-96v-32C496,107.58,492.416,103.996,488,103.996z
			 M455.336,383.996H480v16h-26.52C454.656,394.844,455.336,389.5,455.336,383.996z M192.8,87.996c3.72-18.232,19.88-32,39.2-32
			s35.48,13.768,39.192,32H192.8z M201.008,103.996h61.976c-3.56,13.784-16.104,24-30.984,24c-1.976,0-3.904-0.208-5.784-0.552
			c3.56-4.184,5.784-9.536,5.784-15.448h-16c0,3.536-2.352,6.448-5.544,7.504C205.968,115.38,202.584,110.076,201.008,103.996z
			 M64,207.996h-8v-32h8c8.824,0,16,7.176,16,16C80,200.82,72.824,207.996,64,207.996z M17.008,311.996
			c3.56-13.784,16.104-24,30.992-24h40c4.416,0,8-3.584,8-8v-112h24c10.472,0,19.296,6.776,22.568,16.144
			C130.008,184.892,120,195.252,120,207.996c0,7.064,3.128,13.36,8,17.76v104.728c-12.752-11.448-29.552-18.488-48-18.488H17.008z
			 M80,439.996c-30.88,0-56-25.12-56-56s25.12-56,56-56s56,25.12,56,56S110.88,439.996,80,439.996z M136,207.996
			c0-4.408,3.592-8,8-8h64c4.416,0,8-3.584,8-8v-36.688l11.312-11.312H248c22.056,0,40,17.944,40,40v56c0,22.056-17.944,40-40,40
			h-32c-13.232,0-24,10.768-24,24v48h-16v-48c0-22.056,17.944-40,40-40h8c4.416,0,8-3.584,8-8v-25.472
			c9.288-3.312,16-12.112,16-22.528v-32h-16v32c0,4.408-3.592,8-8,8h-80C139.592,215.996,136,212.404,136,207.996z M208,326.524
			c2.512,0.896,5.184,1.472,8,1.472h92.688l-24,24H208V326.524z M144,343.996v-112h72v16c-30.88,0-56,25.12-56,56v48h-8
			C147.592,351.996,144,348.404,144,343.996z M311.328,383.996H152c0-5.576-0.696-10.976-1.904-16.192
			c0.64,0.048,1.248,0.192,1.904,0.192h16h32h88c2.12,0,4.152-0.84,5.656-2.344l37.656-37.656h6.864
			C321.824,341.204,311.328,361.388,311.328,383.996z M439.328,383.996c0,30.88-25.12,56-56,56s-56-25.12-56-56s25.12-56,56-56
			S439.328,353.116,439.328,383.996z M432,311.996H216c-4.408,0-8-3.592-8-8c0-4.408,3.592-8,8-8h32h64
			c2.12,0,4.152-0.84,5.656-2.344l13.656-13.656H432c8.824,0,16,7.176,16,16C448,304.82,440.824,311.996,432,311.996z M480,239.996
			c0,13.232-10.768,24-24,24h-24h-96v-112h144V239.996z M480,135.996H336v-16h144V135.996z"/>
	</g>
</g>
<g>
	<g>
		<rect x="352" y="231.996" width="40" height="16"/>
	</g>
</g>
<g>
	<g>
		<rect x="352" y="199.996" width="64" height="16"/>
	</g>
</g>
<g>
	<g>
		<rect x="352" y="167.996" width="96" height="16"/>
	</g>
</g>
<g>
	<g>
		<rect x="288" y="39.996" width="72" height="16"/>
	</g>
</g>
<g>
	<g>
		<rect x="376" y="39.996" width="16" height="16"/>
	</g>
</g>
<g>
	<g>
		<rect x="408" y="39.996" width="16" height="16"/>
	</g>
</g>
<g>
	<g>
		<rect x="440" y="39.996" width="16" height="16"/>
	</g>
</g>
<g>
	<g>
		<rect x="320" y="71.996" width="72" height="16"/>
	</g>
</g>
<g>
	<g>
		<rect x="408" y="71.996" width="16" height="16"/>
	</g>
</g>
<g>
	<g>
		<rect x="440" y="71.996" width="16" height="16"/>
	</g>
</g>
<g>
	<g>
		<rect x="472" y="71.996" width="16" height="16"/>
	</g>
</g>
<g>
</g>
<g>
</g>
<g>
</g>
<g>
</g>
<g>
</g>
<g>
</g>
<g>
</g>
<g>
</g>
<g>
</g>
<g>
</g>
<g>
</g>
<g>
</g>
<g>
</g>
<g>
</g>
<g>
</g>
</svg>
