<?xml version="1.0" encoding="iso-8859-1"?>
<!-- Generator: Adobe Illustrator 19.0.0, SVG Export Plug-In . SVG Version: 6.00 Build 0)  -->
<svg version="1.1" id="Capa_1" xmlns="http://www.w3.org/2000/svg" xmlns:xlink="http://www.w3.org/1999/xlink" x="0px" y="0px"
	 viewBox="0 0 496 496" style="enable-background:new 0 0 496 496;" xml:space="preserve">
<g>
	<g>
		<path d="M468,440H328v-2.728l51.152-21.92c0.936-0.4,1.784-0.976,2.504-1.696l11.976-11.976l35.248,20.352
			c1.224,0.704,2.608,1.072,4,1.072c0.696,0,1.392-0.088,2.072-0.272c2.048-0.544,3.8-1.888,4.856-3.728l16-27.712
			C517.464,284.6,487.416,149.656,390.32,78.208c5.4-2.704,10.12-6.912,13.36-12.52c4.272-7.4,5.408-16.024,3.192-24.28
			c-2.208-8.256-7.504-15.16-14.912-19.432c-15.296-8.816-34.896-3.56-43.712,11.712c-3.16,5.48-4.576,11.632-4.224,17.8
			C233.608,3.16,101.76,44.616,40.112,151.384l-16,27.712c-2.208,3.832-0.896,8.72,2.928,10.928L204.208,292.32
			c-2.4,1.096-4.712,2.344-6.888,3.8c-35.424,1.168-64.36,25.136-68.704,55.88H72c-3.112,0-5.944,1.808-7.256,4.624
			c-1.312,2.824-0.872,6.152,1.136,8.528l40,47.48c0.872,1.032,1.992,1.824,3.256,2.312L168,437.496V440H28c-15.44,0-28,12.56-28,28
			s12.56,28,28,28h440c15.44,0,28-12.56,28-28S483.44,440,468,440z M362.096,41.68c2.968-5.128,8.352-8,13.888-8
			c2.712,0,5.456,0.696,7.968,2.144c3.704,2.136,6.352,5.584,7.456,9.712s0.536,8.44-1.6,12.136
			c-2.136,3.704-5.584,6.352-9.712,7.456c-4.144,1.104-8.44,0.536-12.144-1.6c-3.696-2.12-6.336-5.576-7.448-9.704
			C359.392,49.696,359.968,45.384,362.096,41.68z M41.976,180.168l12-20.784c29.912-51.816,78.216-88.88,136.008-104.368
			c57.808-15.488,118.16-7.544,169.976,22.376c106.968,61.76,143.744,199.024,81.992,305.992l-12,20.784L41.976,180.168z
			 M180.944,314.928C177.808,321.296,176,328.432,176,336h16c0-17.648,14.352-32,32-32v-0.256L307.584,352H144.84
			C148.224,334.816,162.264,320.744,180.944,314.928z M116.792,400.744L89.2,368h246.096l43.992,25.4l-7.856,7.856l-54.584,23.392
			C313.904,425.904,312,428.8,312,432v8H184v-8c0-3.312-2.04-6.288-5.136-7.472L116.792,400.744z M468,480H28
			c-6.616,0-12-5.384-12-12c0-6.616,5.384-12,12-12h148h144h148c6.616,0,12,5.384,12,12C480,474.616,474.616,480,468,480z"/>
	</g>
</g>
<g>
	<g>
		<rect x="328" y="312" width="16" height="16"/>
	</g>
</g>
<g>
	<g>
		<rect x="368" y="336" width="16" height="16"/>
	</g>
</g>
<g>
	<g>
		<rect x="408" y="360" width="16" height="16"/>
	</g>
</g>
<g>
	<g>
		<path d="M88,40C70.352,40,56,25.648,56,8c0-4.416-3.584-8-8-8s-8,3.584-8,8c0,17.648-14.352,32-32,32c-4.416,0-8,3.584-8,8
			s3.584,8,8,8c17.648,0,32,14.352,32,32c0,4.416,3.584,8,8,8s8-3.584,8-8c0-17.648,14.352-32,32-32c4.416,0,8-3.584,8-8
			S92.416,40,88,40z M48,61.488C44.448,56.152,39.848,51.552,34.504,48c5.344-3.552,9.944-8.152,13.496-13.496
			c3.552,5.344,8.152,9.944,13.488,13.496C56.152,51.552,51.552,56.152,48,61.488z"/>
	</g>
</g>
<g>
	<g>
		<path d="M104,280c-17.648,0-32-14.352-32-32c0-4.416-3.584-8-8-8s-8,3.584-8,8c0,17.648-14.352,32-32,32c-4.416,0-8,3.584-8,8
			c0,4.416,3.584,8,8,8c17.648,0,32,14.352,32,32c0,4.416,3.584,8,8,8s8-3.584,8-8c0-17.648,14.352-32,32-32c4.416,0,8-3.584,8-8
			C112,283.584,108.416,280,104,280z M64,301.496c-3.552-5.344-8.152-9.944-13.496-13.496c5.344-3.552,9.944-8.152,13.496-13.496
			c3.552,5.344,8.152,9.936,13.488,13.496C72.144,291.552,67.552,296.152,64,301.496z"/>
	</g>
</g>
<g>
	<g>
		<path d="M216,152c-17.648,0-32-14.352-32-32c0-4.416-3.584-8-8-8s-8,3.584-8,8c0,17.648-14.352,32-32,32c-4.416,0-8,3.584-8,8
			s3.584,8,8,8c17.648,0,32,14.352,32,32c0,4.416,3.584,8,8,8s8-3.584,8-8c0-17.648,14.352-32,32-32c4.416,0,8-3.584,8-8
			S220.416,152,216,152z M176,173.496c-3.552-5.344-8.152-9.936-13.496-13.496c5.344-3.552,9.936-8.152,13.496-13.496
			c3.552,5.344,8.152,9.936,13.488,13.496C184.152,163.552,179.552,168.152,176,173.496z"/>
	</g>
</g>
<g>
</g>
<g>
</g>
<g>
</g>
<g>
</g>
<g>
</g>
<g>
</g>
<g>
</g>
<g>
</g>
<g>
</g>
<g>
</g>
<g>
</g>
<g>
</g>
<g>
</g>
<g>
</g>
<g>
</g>
</svg>
