<?xml version="1.0" encoding="iso-8859-1"?>
<!-- Generator: Adobe Illustrator 19.0.0, SVG Export Plug-In . SVG Version: 6.00 Build 0)  -->
<svg version="1.1" id="Capa_1" xmlns="http://www.w3.org/2000/svg" xmlns:xlink="http://www.w3.org/1999/xlink" x="0px" y="0px"
	 viewBox="0 0 496 496" style="enable-background:new 0 0 496 496;" xml:space="preserve">
<g>
	<g>
		<path d="M448,416V128c13.232,0,24-10.768,24-24s-10.768-24-24-24h-0.72c-3.824-22.664-23.536-40-47.28-40H280V24
			c0-13.232-10.768-24-24-24h-16c-13.232,0-24,10.768-24,24v16H96c-23.736,0-43.448,17.336-47.28,40H48c-13.232,0-24,10.768-24,24
			s10.768,24,24,24v288c-13.232,0-24,10.768-24,24s10.768,24,24,24h16v16c0,8.824,7.176,16,16,16h24c8.816,0,16-7.176,16-16v-16h256
			v16c0,8.824,7.176,16,16,16h24c8.816,0,16-7.176,16-16v-16h16c13.232,0,24-10.768,24-24S461.232,416,448,416z M232,24
			c0-4.416,3.584-8,8-8h16c4.416,0,8,3.584,8,8v16h-32V24z M96,56h128h48h128c14.88,0,27.432,10.208,30.984,24H65.016
			C68.568,66.208,81.12,56,96,56z M40,104c0-4.416,3.584-8,8-8h8h384h8c4.416,0,8,3.584,8,8s-3.584,8-8,8h-8H56h-8
			C43.584,112,40,108.416,40,104z M432,128v288H64V128H432z M104,480H80v-16h24V480z M416,480h-24v-16h24V480z M448,448H48
			c-4.416,0-8-3.584-8-8c0-4.416,3.584-8,8-8h8h384h8c4.416,0,8,3.584,8,8C456,444.416,452.416,448,448,448z"/>
	</g>
</g>
<g>
	<g>
		<path d="M320.016,345.472v-14.064c0-9.912-5.016-18.968-13.432-24.232l-28.872-18.04c-3.568-2.232-5.728-5.928-5.904-10.144
			c-0.2-4.208,1.64-8.08,5.008-10.608l31.752-23.808c7.168-5.368,11.44-13.912,11.44-22.864v-15.184
			c9.288-3.312,16-12.112,16-22.528c0-13.232-10.768-24-24-24h-128c-13.232,0-24,10.768-24,24c0,10.416,6.704,19.216,16,22.528
			v15.184c0,8.952,4.272,17.504,11.44,22.856l31.752,23.816c3.368,2.528,5.2,6.4,5.024,10.608
			c-0.176,4.208-2.336,7.904-5.904,10.144l-28.872,18.04c-8.416,5.264-13.432,14.32-13.432,24.232v14.064
			c-9.296,3.312-16,12.112-16,22.528c0,13.232,10.768,24,24,24h128c13.232,0,24-10.768,24-24
			C336.016,357.584,329.304,348.784,320.016,345.472z M184,192c-4.416,0-8-3.584-8-8s3.584-8,8-8h128c4.416,0,8,3.584,8,8
			s-3.584,8-8,8H184z M191.992,331.408c0-4.368,2.208-8.352,5.912-10.672l28.872-18.04c7.992-5,13.008-13.6,13.408-23.024
			c0.4-9.424-3.864-18.432-11.416-24.088l-31.752-23.824c-3.144-2.352-5.032-6.12-5.032-10.056V208h112v13.712
			c0,3.936-1.88,7.704-5.032,10.064L267.2,255.584c-7.544,5.656-11.816,14.664-11.416,24.088s5.432,18.024,13.424,23.024
			l28.872,18.04c3.704,2.32,5.912,6.304,5.912,10.672V344h-112V331.408z M312,376H184c-4.416,0-8-3.584-8-8c0-4.416,3.584-8,8-8h128
			c4.416,0,8,3.584,8,8C320,372.416,316.416,376,312,376z"/>
	</g>
</g>
<g>
</g>
<g>
</g>
<g>
</g>
<g>
</g>
<g>
</g>
<g>
</g>
<g>
</g>
<g>
</g>
<g>
</g>
<g>
</g>
<g>
</g>
<g>
</g>
<g>
</g>
<g>
</g>
<g>
</g>
</svg>
